<mxfile host="app.diagrams.net" modified="2021-09-16T15:31:08.334Z" agent="5.0 (Windows NT 10.0; Win64; x64) AppleWebKit/537.36 (KHTML, like Gecko) Chrome/93.0.4577.63 Safari/537.36" etag="WUyxQ6a3DKwCrPd7PTYr" version="14.9.3" type="github">
  <diagram id="8T3f9UwFYzaLS0eyUJsZ" name="Page-1">
    <mxGraphModel dx="1550" dy="784" grid="1" gridSize="10" guides="1" tooltips="1" connect="1" arrows="1" fold="1" page="1" pageScale="1" pageWidth="3300" pageHeight="4681" math="0" shadow="0">
      <root>
        <mxCell id="0" />
        <mxCell id="1" parent="0" />
        <mxCell id="tAR45_gAhTGxKTQlGq34-19" value="" style="edgeStyle=orthogonalEdgeStyle;rounded=0;orthogonalLoop=1;jettySize=auto;html=1;fontColor=#000000;" edge="1" parent="1" source="tAR45_gAhTGxKTQlGq34-2" target="tAR45_gAhTGxKTQlGq34-3">
          <mxGeometry relative="1" as="geometry" />
        </mxCell>
        <mxCell id="tAR45_gAhTGxKTQlGq34-2" value="WebMvcAutoConfiguration" style="rounded=0;whiteSpace=wrap;html=1;fillColor=#ffffff;" vertex="1" parent="1">
          <mxGeometry x="820" y="702.5" width="170" height="50" as="geometry" />
        </mxCell>
        <mxCell id="tAR45_gAhTGxKTQlGq34-20" value="" style="edgeStyle=orthogonalEdgeStyle;rounded=0;orthogonalLoop=1;jettySize=auto;html=1;fontColor=#000000;" edge="1" parent="1" source="tAR45_gAhTGxKTQlGq34-3" target="tAR45_gAhTGxKTQlGq34-7">
          <mxGeometry relative="1" as="geometry" />
        </mxCell>
        <mxCell id="tAR45_gAhTGxKTQlGq34-3" value="EnableWebMvcConfiguration" style="rounded=0;whiteSpace=wrap;html=1;fillColor=#ffffff;" vertex="1" parent="1">
          <mxGeometry x="1075" y="702.5" width="180" height="50" as="geometry" />
        </mxCell>
        <mxCell id="tAR45_gAhTGxKTQlGq34-10" style="edgeStyle=orthogonalEdgeStyle;rounded=0;orthogonalLoop=1;jettySize=auto;html=1;exitX=1;exitY=0.5;exitDx=0;exitDy=0;entryX=0;entryY=0.5;entryDx=0;entryDy=0;fontColor=#1A1A1A;" edge="1" parent="1" source="tAR45_gAhTGxKTQlGq34-7" target="tAR45_gAhTGxKTQlGq34-9">
          <mxGeometry relative="1" as="geometry" />
        </mxCell>
        <mxCell id="tAR45_gAhTGxKTQlGq34-21" value="" style="rounded=0;orthogonalLoop=1;jettySize=auto;html=1;fontColor=#000000;exitX=0.5;exitY=0;exitDx=0;exitDy=0;edgeStyle=orthogonalEdgeStyle;" edge="1" parent="1" source="tAR45_gAhTGxKTQlGq34-7">
          <mxGeometry relative="1" as="geometry">
            <mxPoint x="1150" y="602.5" as="sourcePoint" />
            <mxPoint x="1165" y="464" as="targetPoint" />
          </mxGeometry>
        </mxCell>
        <mxCell id="tAR45_gAhTGxKTQlGq34-7" value="DelegatingWebMvcConfiguration" style="rounded=0;whiteSpace=wrap;html=1;fillColor=#ffffff;" vertex="1" parent="1">
          <mxGeometry x="1070" y="602.5" width="190" height="50" as="geometry" />
        </mxCell>
        <mxCell id="tAR45_gAhTGxKTQlGq34-8" value="&lt;pre style=&quot;font-family: &amp;#34;jetbrains mono&amp;#34; , monospace ; font-size: 11.3pt&quot;&gt;&lt;br&gt;&lt;/pre&gt;" style="rounded=0;whiteSpace=wrap;html=1;fillColor=#ffffff;" vertex="1" parent="1">
          <mxGeometry x="866" y="120" width="864" height="420" as="geometry" />
        </mxCell>
        <mxCell id="tAR45_gAhTGxKTQlGq34-9" value="&lt;pre style=&quot;font-size: 13px ; font-family: &amp;#34;jetbrains mono&amp;#34; , monospace&quot;&gt;&lt;span style=&quot;background-color: rgb(255 , 255 , 255)&quot;&gt;1.&lt;/span&gt;自定义添加拦截器&lt;br&gt;2.自定义消息转换器&lt;br/&gt;3.其他自定义&lt;/pre&gt;" style="rounded=0;whiteSpace=wrap;html=1;" vertex="1" parent="1">
          <mxGeometry x="1350" y="595" width="160" height="65" as="geometry" />
        </mxCell>
        <mxCell id="tAR45_gAhTGxKTQlGq34-17" value="" style="shape=image;html=1;verticalLabelPosition=bottom;verticalAlign=top;imageAspect=1;aspect=fixed;image=img/clipart/Gear_128x128.png;rounded=0;fontColor=#000000;" vertex="1" parent="1">
          <mxGeometry x="1490" y="560" width="52" height="61" as="geometry" />
        </mxCell>
        <mxCell id="tAR45_gAhTGxKTQlGq34-30" style="edgeStyle=orthogonalEdgeStyle;rounded=0;orthogonalLoop=1;jettySize=auto;html=1;entryX=0.436;entryY=1;entryDx=0;entryDy=0;entryPerimeter=0;dashed=1;fontColor=#000000;" edge="1" parent="1" source="tAR45_gAhTGxKTQlGq34-13" target="tAR45_gAhTGxKTQlGq34-23">
          <mxGeometry relative="1" as="geometry">
            <Array as="points">
              <mxPoint x="1415" y="520" />
              <mxPoint x="1362" y="520" />
              <mxPoint x="1362" y="440" />
            </Array>
          </mxGeometry>
        </mxCell>
        <mxCell id="tAR45_gAhTGxKTQlGq34-33" value="1.配置处理器，以及其他" style="edgeLabel;html=1;align=center;verticalAlign=middle;resizable=0;points=[];fontColor=#000000;" vertex="1" connectable="0" parent="tAR45_gAhTGxKTQlGq34-30">
          <mxGeometry x="0.6659" relative="1" as="geometry">
            <mxPoint as="offset" />
          </mxGeometry>
        </mxCell>
        <mxCell id="tAR45_gAhTGxKTQlGq34-31" value="1.拦截器" style="edgeStyle=orthogonalEdgeStyle;rounded=0;orthogonalLoop=1;jettySize=auto;html=1;entryX=0.5;entryY=1;entryDx=0;entryDy=0;dashed=1;fontColor=#000000;" edge="1" parent="1" source="tAR45_gAhTGxKTQlGq34-13" target="tAR45_gAhTGxKTQlGq34-22">
          <mxGeometry x="0.6296" y="1" relative="1" as="geometry">
            <Array as="points">
              <mxPoint x="1415" y="520" />
              <mxPoint x="1617" y="520" />
            </Array>
            <mxPoint as="offset" />
          </mxGeometry>
        </mxCell>
        <mxCell id="tAR45_gAhTGxKTQlGq34-13" value="&lt;pre style=&quot;font-family: &amp;quot;jetbrains mono&amp;quot;, monospace; font-size: 11.3pt;&quot;&gt;&lt;span style=&quot;background-color: rgb(255 , 255 , 255)&quot;&gt;WebMvcConfigurer&lt;/span&gt;&lt;/pre&gt;" style="text;html=1;strokeColor=none;fillColor=none;align=center;verticalAlign=middle;whiteSpace=wrap;rounded=0;fontStyle=1" vertex="1" parent="1">
          <mxGeometry x="1350" y="580" width="130" height="15" as="geometry" />
        </mxCell>
        <mxCell id="tAR45_gAhTGxKTQlGq34-22" value="" style="rounded=0;whiteSpace=wrap;html=1;fontColor=#000000;" vertex="1" parent="1">
          <mxGeometry x="1510" y="160" width="212" height="190" as="geometry" />
        </mxCell>
        <mxCell id="tAR45_gAhTGxKTQlGq34-23" value="" style="rounded=0;whiteSpace=wrap;html=1;fontColor=#000000;" vertex="1" parent="1">
          <mxGeometry x="1271" y="160" width="219" height="280" as="geometry" />
        </mxCell>
        <mxCell id="tAR45_gAhTGxKTQlGq34-34" value="&lt;b&gt;&lt;span&gt;RequestMappingHandlerAdapter&lt;/span&gt;&lt;br&gt;&lt;span&gt;(调用Controller方法)&lt;/span&gt;&lt;/b&gt;" style="text;html=1;align=center;verticalAlign=middle;resizable=0;points=[];autosize=1;strokeColor=none;fontColor=#000000;" vertex="1" parent="1">
          <mxGeometry x="1265" y="170" width="200" height="30" as="geometry" />
        </mxCell>
        <mxCell id="tAR45_gAhTGxKTQlGq34-35" value="&lt;b&gt;&lt;span&gt;RequestMappingHandlerMapping&lt;/span&gt;&lt;br&gt;&lt;span&gt;(路由映射Controller)&lt;/span&gt;&lt;/b&gt;" style="text;html=1;align=center;verticalAlign=middle;resizable=0;points=[];autosize=1;strokeColor=none;fontColor=#000000;" vertex="1" parent="1">
          <mxGeometry x="1519" y="170" width="210" height="30" as="geometry" />
        </mxCell>
        <mxCell id="tAR45_gAhTGxKTQlGq34-36" value="HandlerMethodArgumentResolver&lt;br&gt;入参处理器" style="rounded=0;whiteSpace=wrap;html=1;fontColor=#000000;verticalAlign=top;" vertex="1" parent="1">
          <mxGeometry x="1285.5" y="237.5" width="194.5" height="92.5" as="geometry" />
        </mxCell>
        <mxCell id="tAR45_gAhTGxKTQlGq34-37" value="HandlerMethodReturnValueHandler&lt;br&gt;返回值处理器" style="rounded=0;whiteSpace=wrap;html=1;fontColor=#000000;verticalAlign=top;" vertex="1" parent="1">
          <mxGeometry x="1285.5" y="350" width="194.5" height="80" as="geometry" />
        </mxCell>
        <mxCell id="tAR45_gAhTGxKTQlGq34-39" value="HandlerInterceptor&lt;br&gt;(拦截器)" style="rounded=0;whiteSpace=wrap;html=1;fontColor=#000000;" vertex="1" parent="1">
          <mxGeometry x="1530" y="220" width="160" height="35" as="geometry" />
        </mxCell>
        <mxCell id="tAR45_gAhTGxKTQlGq34-40" value="HttpMessageConverter&lt;br&gt;消息转换" style="rounded=0;whiteSpace=wrap;html=1;fontColor=#000000;" vertex="1" parent="1">
          <mxGeometry x="1300" y="390" width="160" height="35" as="geometry" />
        </mxCell>
        <mxCell id="tAR45_gAhTGxKTQlGq34-41" value="HttpMessageConverter&lt;br&gt;消息转换" style="rounded=0;whiteSpace=wrap;html=1;fontColor=#000000;" vertex="1" parent="1">
          <mxGeometry x="1300.5" y="282.5" width="160" height="35" as="geometry" />
        </mxCell>
      </root>
    </mxGraphModel>
  </diagram>
</mxfile>
